<svg width="49" height="38" viewBox="0 0 49 38" fill="none" xmlns="http://www.w3.org/2000/svg">
<path d="M37.6 -2.39046e-05C40.8666 -2.3619e-05 43.6 0.999977 45.8 2.99998C47.9333 5.06664 49 7.79998 49 11.2C49 12.1333 48.9333 13.0666 48.8 14C48.6 14.9333 48.2666 16.0666 47.8 17.4C47.3333 18.7333 46.6333 20.4666 45.7 22.6L39.3 37.3L27.4 37.3L34.9 11.3L37.6 22.1C34.2666 22.1 31.5333 21.1333 29.4 19.2C27.2666 17.2666 26.2 14.6 26.2 11.2C26.2 7.79998 27.3 5.06664 29.5 2.99998C31.6333 0.999976 34.3333 -2.41902e-05 37.6 -2.39046e-05ZM11.4 -2.61951e-05C14.6666 -2.59095e-05 17.4 0.999974 19.6 2.99997C21.7333 5.06664 22.8 7.79997 22.8 11.2C22.8 12.1333 22.7333 13.0666 22.6 14C22.4 14.9333 22.0666 16.0666 21.6 17.4C21.1333 18.7333 20.4333 20.4666 19.5 22.6L13.1 37.3L1.19995 37.3L8.69995 11.3L11.4 22.1C8.06662 22.1 5.33329 21.1333 3.19995 19.2C1.06662 17.2666 -4.68054e-05 14.6 -4.65082e-05 11.2C-4.62109e-05 7.79997 1.09995 5.06664 3.29995 2.99997C5.43329 0.999973 8.13329 -2.64807e-05 11.4 -2.61951e-05Z" fill="#706FE5"/>
</svg>
