<svg width="48" height="48" viewBox="0 0 48 48" fill="none" xmlns="http://www.w3.org/2000/svg">
<rect width="48" height="48" rx="24" fill="#706FE5"/>
<path d="M30.7812 23.75C30.7812 20.0039 27.7461 16.9688 24 16.9688C20.2539 16.9688 17.2188 20.0039 17.2188 23.75C17.2188 27.1406 19.6797 29.957 22.9336 30.4492V25.7188H21.2109V23.75H22.9336V22.2734C22.9336 20.5781 23.9453 19.6211 25.4766 19.6211C26.2422 19.6211 27.0078 19.7578 27.0078 19.7578V21.4258H26.1602C25.3125 21.4258 25.0391 21.9453 25.0391 22.4922V23.75H26.9258L26.625 25.7188H25.0391V30.4492C28.293 29.957 30.7812 27.1406 30.7812 23.75Z" fill="white"/>
</svg>
